{
  "accessors": [
    {
      "bufferView": 2,
      "componentType": 5126,
      "count": 729,
      "max": [
        1.0,
        1.0,
        1.1177053451538086
      ],
      "min": [
        -1.0,
        -1.0,
        0.07960331439971924
      ],
      "type": "VEC3"
    },
    {
      "bufferView": 2,
      "byteOffset": 8748,
      "componentType": 5126,
      "count": 729,
      "max": [
        1.0,
        1.0,
        1.0
      ],
      "min": [
        -1.0,
        -1.0,
        -0.9630573391914368
      ],
      "type": "VEC3"
    },
    {
      "bufferView": 3,
      "componentType": 5126,
      "count": 729,
      "max": [
        0.9911510944366455,
        0.9560600519180298,
        0.9997717142105103,
        1.0
      ],
      "min": [
        -0.9449838995933533,
        -0.986939013004303,
        -0.9997717142105103,
        1.0
      ],
      "type": "VEC4"
    },
    {
      "bufferView": 1,
      "componentType": 5126,
      "count": 729,
      "max": [
        0.9997357726097107,
        0.9119235873222351
      ],
      "min": [
        0.00026421216898597777,
        0.00026421216898597777
      ],
      "type": "VEC2"
    },
    {
      "bufferView": 1,
      "byteOffset": 5832,
      "componentType": 5126,
      "count": 729,
      "max": [
        0.9997357726097107,
        0.9119235873222351
      ],
      "min": [
        0.00026421216898597777,
        0.00026421216898597777
      ],
      "type": "VEC2"
    },
    {
      "bufferView": 1,
      "byteOffset": 11664,
      "componentType": 5126,
      "count": 729,
      "max": [
        0.9997357726097107,
        0.9119235873222351
      ],
      "min": [
        0.00026421216898597777,
        0.00026421216898597777
      ],
      "type": "VEC2"
    },
    {
      "bufferView": 0,
      "componentType": 5125,
      "count": 3258,
      "type": "SCALAR"
    },
    {
      "bufferView": 2,
      "byteOffset": 17496,
      "componentType": 5126,
      "count": 511,
      "max": [
        2.866257667541504,
        2.866257667541504,
        0.0
      ],
      "min": [
        -2.866257667541504,
        -2.866257667541504,
        -2.933607578277588
      ],
      "type": "VEC3"
    },
    {
      "bufferView": 2,
      "byteOffset": 23628,
      "componentType": 5126,
      "count": 511,
      "max": [
        2.026292122536688e-06,
        0.0,
        1.0
      ],
      "min": [
        -9.894522463582689e-07,
        0.0,
        -1.0
      ],
      "type": "VEC3"
    },
    {
      "bufferView": 1,
      "byteOffset": 17496,
      "componentType": 5126,
      "count": 511,
      "max": [
        0.9838993549346924,
        0.9838993549346924
      ],
      "min": [
        0.016100674867630005,
        0.016100674867630005
      ],
      "type": "VEC2"
    },
    {
      "bufferView": 0,
      "byteOffset": 13032,
      "componentType": 5125,
      "count": 1260,
      "type": "SCALAR"
    }
  ],
  "asset": {
    "extras": {
      "author": "Agustín Hönnun (https://sketchfab.com/Agustin_Honnun)",
      "license": "CC-BY-4.0 (http://creativecommons.org/licenses/by/4.0/)",
      "source": "https://sketchfab.com/3d-models/mossy-water-fountain-free-agustin-honnun-28fdbbf5c2784307b47465b86a40eb45",
      "title": "Mossy Water Fountain [FREE] | Agustin Honnun"
    },
    "generator": "Sketchfab-12.67.0",
    "version": "2.0"
  },
  "bufferViews": [
    {
      "buffer": 0,
      "byteLength": 18072,
      "name": "floatBufferViews",
      "target": 34963
    },
    {
      "buffer": 0,
      "byteLength": 21584,
      "byteOffset": 18072,
      "byteStride": 8,
      "name": "floatBufferViews",
      "target": 34962
    },
    {
      "buffer": 0,
      "byteLength": 29760,
      "byteOffset": 39656,
      "byteStride": 12,
      "name": "floatBufferViews",
      "target": 34962
    },
    {
      "buffer": 0,
      "byteLength": 11664,
      "byteOffset": 69416,
      "byteStride": 16,
      "name": "floatBufferViews",
      "target": 34962
    }
  ],
  "buffers": [
    {
      "byteLength": 81080,
      "uri": "scene.bin"
    }
  ],
  "images": [
    {
      "uri": "textures/Fountain_Material_baseColor.png"
    },
    {
      "uri": "textures/Fountain_Material_metallicRoughness.png"
    },
    {
      "uri": "textures/Fountain_Material_normal.png"
    }
  ],
  "materials": [
    {
      "name": "Fountain_Material",
      "normalTexture": {
        "index": 2
      },
      "pbrMetallicRoughness": {
        "baseColorTexture": {
          "index": 0
        },
        "metallicFactor": 0.0,
        "metallicRoughnessTexture": {
          "index": 1
        }
      }
    },
    {
      "alphaMode": "BLEND",
      "name": "Water",
      "pbrMetallicRoughness": {
        "baseColorFactor": [
          0.024685499999999996,
          0.034911,
          0.012541400000000001,
          0.6097273650353562
        ],
        "metallicFactor": 0.0
      }
    }
  ],
  "meshes": [
    {
      "name": "Fountain_LowPoly_Fountain_Material_0",
      "primitives": [
        {
          "attributes": {
            "NORMAL": 1,
            "POSITION": 0,
            "TANGENT": 2,
            "TEXCOORD_0": 3,
            "TEXCOORD_1": 4,
            "TEXCOORD_2": 5
          },
          "indices": 6,
          "material": 0,
          "mode": 4
        }
      ]
    },
    {
      "name": "Circle.002_Water_0",
      "primitives": [
        {
          "attributes": {
            "NORMAL": 8,
            "POSITION": 7,
            "TEXCOORD_0": 9
          },
          "indices": 10,
          "material": 1,
          "mode": 4
        }
      ]
    }
  ],
  "nodes": [
    {
      "children": [
        1
      ],
      "matrix": [
        1.0,
        0.0,
        0.0,
        0.0,
        0.0,
        2.220446049250313e-16,
        -1.0,
        0.0,
        0.0,
        1.0,
        2.220446049250313e-16,
        0.0,
        0.0,
        0.0,
        0.0,
        1.0
      ],
      "name": "Sketchfab_model"
    },
    {
      "children": [
        2
      ],
      "matrix": [
        1.0,
        0.0,
        0.0,
        0.0,
        0.0,
        0.0,
        1.0,
        0.0,
        0.0,
        -1.0,
        0.0,
        0.0,
        0.0,
        0.0,
        0.0,
        1.0
      ],
      "name": "a90791bcef6f4fea8770b0444e42de54.fbx"
    },
    {
      "children": [
        3,
        5
      ],
      "name": "RootNode"
    },
    {
      "children": [
        4
      ],
      "matrix": [
        100.0,
        0.0,
        0.0,
        0.0,
        0.0,
        -1.629206793918314e-05,
        -99.99999999999868,
        0.0,
        0.0,
        99.99999999999868,
        -1.629206793918314e-05,
        0.0,
        0.0,
        0.0,
        0.0,
        1.0
      ],
      "name": "Fountain_LowPoly"
    },
    {
      "mesh": 0,
      "name": "Fountain_LowPoly_Fountain_Material_0"
    },
    {
      "children": [
        6
      ],
      "matrix": [
        26.350706100463867,
        0.0,
        0.0,
        0.0,
        0.0,
        -4.2930749403420494e-06,
        -26.35070610046352,
        0.0,
        0.0,
        26.35070610046352,
        -4.2930749403420494e-06,
        0.0,
        0.0,
        104.66448211669922,
        0.0,
        1.0
      ],
      "name": "Circle.002"
    },
    {
      "mesh": 1,
      "name": "Circle.002_Water_0"
    }
  ],
  "samplers": [
    {
      "magFilter": 9729,
      "minFilter": 9987,
      "wrapS": 10497,
      "wrapT": 10497
    }
  ],
  "scene": 0,
  "scenes": [
    {
      "name": "Sketchfab_Scene",
      "nodes": [
        0
      ]
    }
  ],
  "textures": [
    {
      "sampler": 0,
      "source": 0
    },
    {
      "sampler": 0,
      "source": 1
    },
    {
      "sampler": 0,
      "source": 2
    }
  ]
}
